<mxfile host="app.diagrams.net" modified="2021-11-18T07:10:25.527Z" agent="5.0 (Windows NT 10.0; Win64; x64) AppleWebKit/537.36 (KHTML, like Gecko) Chrome/95.0.4638.69 Safari/537.36" etag="wGf92-FxDw5CH3Qcjme3" version="15.7.4" type="github">
  <diagram id="Iiyaee4HFlRJPciN_uw2" name="第 1 页">
    <mxGraphModel dx="1422" dy="762" grid="1" gridSize="10" guides="1" tooltips="1" connect="1" arrows="1" fold="1" page="1" pageScale="1" pageWidth="827" pageHeight="1169" math="0" shadow="0">
      <root>
        <mxCell id="0" />
        <mxCell id="1" parent="0" />
        <mxCell id="VM2PkTqM5a7MPVvvmX7i-1" value="" style="rounded=0;whiteSpace=wrap;html=1;" vertex="1" parent="1">
          <mxGeometry x="50" y="10" width="930" height="850" as="geometry" />
        </mxCell>
        <mxCell id="VM2PkTqM5a7MPVvvmX7i-3" value="标题" style="rounded=0;whiteSpace=wrap;html=1;" vertex="1" parent="1">
          <mxGeometry x="167" y="40" width="660" height="40" as="geometry" />
        </mxCell>
        <mxCell id="VM2PkTqM5a7MPVvvmX7i-4" value="" style="rounded=0;whiteSpace=wrap;html=1;" vertex="1" parent="1">
          <mxGeometry x="60" y="100" width="330" height="320" as="geometry" />
        </mxCell>
        <mxCell id="VM2PkTqM5a7MPVvvmX7i-7" value="&lt;h1&gt;终端活跃统计&lt;/h1&gt;" style="text;html=1;strokeColor=none;fillColor=none;spacing=5;spacingTop=-20;whiteSpace=wrap;overflow=hidden;rounded=0;" vertex="1" parent="1">
          <mxGeometry x="60" y="100" width="160" height="30" as="geometry" />
        </mxCell>
        <mxCell id="VM2PkTqM5a7MPVvvmX7i-8" value="APP" style="rounded=0;whiteSpace=wrap;html=1;" vertex="1" parent="1">
          <mxGeometry x="165" y="180" width="120" height="60" as="geometry" />
        </mxCell>
        <mxCell id="VM2PkTqM5a7MPVvvmX7i-9" value="T-BOX" style="rounded=0;whiteSpace=wrap;html=1;" vertex="1" parent="1">
          <mxGeometry x="240" y="290" width="120" height="60" as="geometry" />
        </mxCell>
        <mxCell id="VM2PkTqM5a7MPVvvmX7i-10" value="HUT" style="rounded=0;whiteSpace=wrap;html=1;" vertex="1" parent="1">
          <mxGeometry x="80" y="290" width="120" height="60" as="geometry" />
        </mxCell>
        <mxCell id="VM2PkTqM5a7MPVvvmX7i-11" value="" style="rounded=0;whiteSpace=wrap;html=1;" vertex="1" parent="1">
          <mxGeometry x="60" y="450" width="330" height="320" as="geometry" />
        </mxCell>
        <mxCell id="VM2PkTqM5a7MPVvvmX7i-13" value="&lt;h1&gt;云资源使用情况&lt;/h1&gt;" style="text;html=1;strokeColor=none;fillColor=none;spacing=5;spacingTop=-20;whiteSpace=wrap;overflow=hidden;rounded=0;" vertex="1" parent="1">
          <mxGeometry x="60" y="450" width="200" height="40" as="geometry" />
        </mxCell>
        <mxCell id="VM2PkTqM5a7MPVvvmX7i-14" value="费用分布" style="rounded=0;whiteSpace=wrap;html=1;" vertex="1" parent="1">
          <mxGeometry x="150" y="560" width="120" height="60" as="geometry" />
        </mxCell>
        <mxCell id="VM2PkTqM5a7MPVvvmX7i-15" value="费用明细" style="rounded=0;whiteSpace=wrap;html=1;" vertex="1" parent="1">
          <mxGeometry x="150" y="660" width="120" height="60" as="geometry" />
        </mxCell>
        <mxCell id="VM2PkTqM5a7MPVvvmX7i-16" value="" style="rounded=0;whiteSpace=wrap;html=1;" vertex="1" parent="1">
          <mxGeometry x="600" y="110" width="330" height="320" as="geometry" />
        </mxCell>
        <mxCell id="VM2PkTqM5a7MPVvvmX7i-17" value="&lt;h1&gt;运维发布&lt;/h1&gt;" style="text;html=1;strokeColor=none;fillColor=none;spacing=5;spacingTop=-20;whiteSpace=wrap;overflow=hidden;rounded=0;" vertex="1" parent="1">
          <mxGeometry x="610" y="110" width="200" height="40" as="geometry" />
        </mxCell>
        <mxCell id="VM2PkTqM5a7MPVvvmX7i-18" value="发版统计" style="rounded=0;whiteSpace=wrap;html=1;" vertex="1" parent="1">
          <mxGeometry x="690" y="170" width="120" height="60" as="geometry" />
        </mxCell>
        <mxCell id="VM2PkTqM5a7MPVvvmX7i-19" value="发版分类" style="rounded=0;whiteSpace=wrap;html=1;" vertex="1" parent="1">
          <mxGeometry x="700" y="280" width="120" height="60" as="geometry" />
        </mxCell>
        <mxCell id="VM2PkTqM5a7MPVvvmX7i-20" value="" style="rounded=0;whiteSpace=wrap;html=1;" vertex="1" parent="1">
          <mxGeometry x="600" y="450" width="330" height="320" as="geometry" />
        </mxCell>
        <mxCell id="VM2PkTqM5a7MPVvvmX7i-21" value="&lt;h1&gt;监控告警&lt;span style=&quot;white-space: pre&quot;&gt;	&lt;/span&gt;&lt;/h1&gt;" style="text;html=1;strokeColor=none;fillColor=none;spacing=5;spacingTop=-20;whiteSpace=wrap;overflow=hidden;rounded=0;" vertex="1" parent="1">
          <mxGeometry x="610" y="480" width="200" height="40" as="geometry" />
        </mxCell>
        <mxCell id="VM2PkTqM5a7MPVvvmX7i-22" value="告警等级分布" style="rounded=0;whiteSpace=wrap;html=1;" vertex="1" parent="1">
          <mxGeometry x="707" y="540" width="120" height="60" as="geometry" />
        </mxCell>
        <mxCell id="VM2PkTqM5a7MPVvvmX7i-23" value="告警统计" style="rounded=0;whiteSpace=wrap;html=1;" vertex="1" parent="1">
          <mxGeometry x="705" y="620" width="120" height="60" as="geometry" />
        </mxCell>
      </root>
    </mxGraphModel>
  </diagram>
</mxfile>
